<?xml version="1.0" encoding="UTF-8" standalone="no"?><svg xmlns:svg="http://www.w3.org/2000/svg" xmlns="http://www.w3.org/2000/svg" version="1.0" width="270" height="160" id="svg12001" xml:space="preserve"><defs id="defs12004"><clipPath id="clipPath12016"><path d="M 596.234,455.666 L -1.049,455.666 L -1.049,30.261 L 596.234,30.261 L 596.234,455.666 z" id="path12018" /></clipPath><clipPath id="clipPath12024"><path d="M 609.449,116.386 L 460.937,29.788 L -14.173,306.964 L -14.173,462.813 L 460.937,185.67 L 609.449,272.292 L 609.449,116.386" id="path12026" /></clipPath><clipPath id="clipPath12032"><path d="M 0.06,841.89 L 595.276,841.89 L 595.276,0.06 L 0.06,0.06 L 0.06,841.89 z" id="path12034" /></clipPath><clipPath id="clipPath12046"><path d="M 0.06,841.89 L 595.276,841.89 L 595.276,0.06 L 0.06,0.06 L 0.06,841.89 z" id="path12048" /></clipPath><clipPath id="clipPath12058"><path d="M 596.206,541.181 L -1.085,541.181 L -1.085,181.944 L 596.206,181.944 L 596.206,541.181 z" id="path12060" /></clipPath><clipPath id="clipPath12066"><path d="M 609.449,269.433 L 460.937,182.835 L -14.173,460.011 L -14.173,553.487 L 460.937,276.343 L 609.449,362.966 L 609.449,269.433" id="path12068" /></clipPath><clipPath id="clipPath12074"><path d="M 0.06,841.89 L 595.276,841.89 L 595.276,0.06 L 0.06,0.06 L 0.06,841.89 z" id="path12076" /></clipPath><clipPath id="clipPath12088"><path d="M 0.06,841.89 L 595.276,841.89 L 595.276,0.06 L 0.06,0.06 L 0.06,841.89 z" id="path12090" /></clipPath><clipPath id="clipPath12100"><path d="M 1.692,716.255 L -29.208,274.695 L 593.176,231.141 L 624.076,672.701" id="path12102" /></clipPath><clipPath id="clipPath12108"><path d="M 609.449,360.166 L 460.937,273.567 L -14.173,550.744 L -14.173,673.616 L 460.937,396.473 L 609.449,483.095 L 609.449,360.166" id="path12110" /></clipPath><clipPath id="clipPath12116"><path d="M 0.06,841.89 L 595.276,841.89 L 595.276,0.06 L 0.06,0.06 L 0.06,841.89 z" id="path12118" /></clipPath><clipPath id="clipPath12130"><path d="M 0.06,841.89 L 595.276,841.89 L 595.276,0.06 L 0.06,0.06 L 0.06,841.89 z" id="path12132" /></clipPath><clipPath id="clipPath12142"><path d="M 596.151,707.244 L -1.077,707.244 L -1.077,392.704 L 596.151,392.704 L 596.151,707.244 z" id="path12144" /></clipPath><clipPath id="clipPath12150"><path d="M 609.449,480.236 L 460.937,393.638 L -14.173,670.814 L -14.173,730.313 L 460.937,453.17 L 609.449,539.792 L 609.449,480.236" id="path12152" /></clipPath><clipPath id="clipPath12158"><path d="M 0.06,841.89 L 595.276,841.89 L 595.276,0.06 L 0.06,0.06 L 0.06,841.89 z" id="path12160" /></clipPath><clipPath id="clipPath12172"><path d="M 0.06,841.89 L 595.276,841.89 L 595.276,0.06 L 0.06,0.06 L 0.06,841.89 z" id="path12174" /></clipPath><clipPath id="clipPath12228"><path d="M 596.151,707.244 L -1.077,707.244 L -1.077,731.266 L 596.151,731.266 L 596.151,707.244 z" id="path12230" /></clipPath><clipPath id="clipPath12236"><path d="M 609.449,480.236 L 460.937,393.638 L -14.173,670.814 L -14.173,730.313 L 460.937,453.17 L 609.449,539.792 L 609.449,480.236" id="path12238" /></clipPath><clipPath id="clipPath12244"><path d="M 0.06,841.89 L 595.276,841.89 L 595.276,0.06 L 0.06,0.06 L 0.06,841.89 z" id="path12246" /></clipPath><clipPath id="clipPath12256"><path d="M 0.06,841.89 L 595.276,841.89 L 595.276,0.06 L 0.06,0.06 L 0.06,841.89 z" id="path12258" /></clipPath></defs><g transform="matrix(0.18,0,0,-0.18,75,174)" id="g12010"><g transform="matrix(9.9115944,0,0,9.9115944,-4279.9874,-6795.9418)" id="g12297"><g transform="translate(452.827,765.287)" id="g12196"><path d="M 0,0 L -7.804,-13.494 C -8.157,-14.107 -8.48,-15.567 -8.507,-16.824 C -8.496,-17.734 -8.319,-18.547 -8.075,-19.245 C -7.542,-20.777 -6.695,-21.728 -6.576,-21.834 C -6.607,-19.104 -5.43,-17.107 -3.729,-15.541 C -1.643,-11.886 0.4,-8.27 2.42,-4.795 C 3.344,-3.134 4.071,-0.847 6.278,-0.921 C 7.021,-0.953 7.74,-1.235 8.255,-1.702 C 8.965,-2.289 9.49,-2.993 9.895,-3.693 C 10.646,-4.995 11.481,-6.444 12.237,-7.749 C 14.704,-3.032 12.483,1.122 9.076,2.712 C 8.619,2.927 8.136,3.089 7.642,3.212 C 7.205,3.311 6.76,3.375 6.31,3.394 C 5.871,3.417 5.436,3.392 4.992,3.32 C 4.828,3.294 4.66,3.261 4.492,3.225 C 3.778,3.06 3.081,2.776 2.411,2.358 C 1.914,2.048 1.423,1.658 0.973,1.197 C 0.773,0.981 0.576,0.764 0.39,0.522 C 0.256,0.355 0.129,0.174 0,0" id="path12198" style="fill:#6D758D;fill-opacity:1;fill-rule:evenodd;stroke:none" /></g><g transform="translate(478.48,751.965)" id="g12204"><path d="M 0,0 L -7.786,13.5 C -7.977,13.838 -8.393,14.287 -8.906,14.745 C -9.339,15.114 -9.829,15.483 -10.315,15.779 C -10.752,16.023 -11.195,16.209 -11.621,16.35 C -12.071,16.498 -12.502,16.596 -12.905,16.663 C -13.362,16.739 -13.785,16.765 -14.155,16.765 C -14.608,16.765 -14.986,16.722 -15.243,16.686 C -15.444,16.66 -15.577,16.621 -15.619,16.607 C -13.241,15.277 -12.1,13.254 -11.593,11 C -9.467,7.366 -7.359,3.789 -5.36,0.307 C -4.385,-1.323 -2.764,-3.11 -3.929,-4.975 C -4.33,-5.599 -4.933,-6.08 -5.598,-6.293 C -6.456,-6.628 -7.317,-6.73 -8.139,-6.723 C -9.653,-6.723 -11.316,-6.723 -12.824,-6.723 C -9.492,-11.982 -3.609,-11.292 -0.772,-7.922 C -0.24,-7.292 0.183,-6.569 0.463,-5.772 C 0.662,-5.214 0.784,-4.614 0.832,-3.993 C 0.865,-3.514 0.846,-3.009 0.773,-2.497 C 0.716,-2.078 0.619,-1.656 0.489,-1.226 C 0.361,-0.825 0.199,-0.416 0,0" id="path12206" style="fill:#6D758D;fill-opacity:1;fill-rule:evenodd;stroke:none" /></g><g id="g12280"><g id="g12264"><g transform="translate(454.11099,736.31799)" id="g12188"><path d="M 0,0 L 15.587,-0.011 C 16.292,-0.013 17.717,0.436 18.822,1.042 C 21.326,2.546 22.145,4.986 22.19,5.223 C 19.847,3.829 17.525,3.847 15.323,4.537 C 11.11,4.516 6.96,4.479 2.94,4.491 C 1.039,4.465 -1.311,3.945 -2.345,5.893 C -2.689,6.555 -2.804,7.319 -2.661,7.995 C -2.515,8.906 -2.178,9.698 -1.751,10.411 C -0.998,11.719 -0.165,13.161 0.589,14.468 C -9.246,14.059 -9.394,0.738 0,0" id="path12190" style="fill:#6D758D;fill-opacity:1;fill-rule:evenodd;stroke:none" /></g><g transform="translate(459.88,746.319)" id="g12192"><path d="M 0,0 L 6.171,-0.007 C 7.54,0 8.79,0.083 10.172,0.117 C 11.414,0.13 13.638,0.192 14.014,1.677 C 14.082,2.101 14.057,2.6 13.925,2.868 C 13.595,3.74 12.349,4.122 11.444,4.335 C 10.761,4.448 10.12,4.492 9.42,4.521 L 2.596,4.492 L 0,0" id="path12194" style="fill:#6D758D;fill-opacity:1;fill-rule:evenodd;stroke:none" /></g><g transform="translate(458.601,755.286)" id="g12200"><path d="M 0,0 L -3.093,-5.337 C -3.77,-6.526 -4.318,-7.653 -4.977,-8.866 C -5.588,-9.949 -6.652,-11.907 -5.554,-12.973 C -5.212,-13.245 -4.776,-13.476 -4.475,-13.49 C -3.555,-13.644 -2.603,-12.757 -1.971,-12.072 C -1.523,-11.537 -1.167,-11.004 -0.787,-10.422 L 2.593,-4.488 L 0,0" id="path12202" style="fill:#6D758D;fill-opacity:1;fill-rule:evenodd;stroke:none" /></g><g transform="translate(467.01601,751.88)" id="g12208"><path d="M 0,0 L -3.072,5.346 C -3.769,6.533 -4.462,7.569 -5.192,8.74 C -5.822,9.809 -6.984,11.71 -8.45,11.295 C -8.859,11.133 -9.279,10.871 -9.445,10.617 C -10.035,9.892 -9.741,8.63 -9.472,7.742 C -9.227,7.081 -8.942,6.511 -8.629,5.887 L -5.184,0 L 0,0" id="path12210" style="fill:#6D758D;fill-opacity:1;fill-rule:evenodd;stroke:none" /></g><g transform="translate(457.485,710.40199)" id="g12212"><path d="M 0,0 C -0.727,0 -1.301,0.06 -1.729,0.174 C -2.164,0.309 -2.627,0.509 -3.137,0.785 C -2.897,1.128 -2.619,1.543 -2.291,2.026 C -1.997,2.512 -1.71,3.076 -1.433,3.728 C -0.831,4.996 -0.514,6.621 -0.476,8.603 C -0.514,11.846 -1.577,14.57 -3.667,16.777 C -5.72,19.037 -8.379,20.181 -11.64,20.22 C -14.869,20.181 -17.516,19.074 -19.59,16.899 C -21.699,14.742 -22.773,11.998 -22.813,8.668 C -22.773,5.362 -21.68,2.606 -19.535,0.411 C -17.421,-1.839 -14.803,-2.978 -11.672,-3.017 C -9.467,-2.998 -7.396,-2.421 -5.458,-1.288 C -5.139,-1.463 -4.808,-1.655 -4.454,-1.86 C -4.1,-2.068 -3.709,-2.245 -3.277,-2.414 C -2.433,-2.754 -1.347,-2.956 0,-3.017 L 0,0 z M -8.261,0.975 C -8.503,0.771 -8.867,0.561 -9.351,0.338 C -9.855,0.089 -10.591,-0.029 -11.554,-0.029 C -14.248,0.01 -16.407,1.174 -18.034,3.469 C -17.764,3.627 -17.457,3.746 -17.104,3.827 C -16.75,3.923 -16.217,3.973 -15.51,3.973 C -14.535,3.994 -13.472,3.801 -12.318,3.391 C -11.16,2.969 -9.808,2.165 -8.261,0.975 z M -5.714,2.757 C -8.901,5.518 -12.075,6.919 -15.226,6.961 C -15.677,6.961 -16.278,6.929 -17.041,6.87 C -17.81,6.794 -18.582,6.591 -19.36,6.262 C -19.424,6.571 -19.479,6.882 -19.535,7.21 C -19.615,7.524 -19.651,7.938 -19.651,8.442 C -19.63,10.928 -18.838,13.014 -17.275,14.691 C -15.762,16.35 -13.871,17.197 -11.586,17.237 C -9.275,17.197 -7.379,16.338 -5.899,14.665 C -4.407,12.986 -3.657,10.974 -3.636,8.613 C -3.657,7.054 -3.909,5.812 -4.392,4.885 C -4.615,4.401 -4.838,3.998 -5.068,3.674 C -5.304,3.308 -5.523,3.008 -5.714,2.757" id="path12214" style="fill:#6D758D;fill-opacity:1;fill-rule:evenodd;stroke:none" /></g><g transform="translate(459.49001,707.51199)" id="g12216"><path d="M 0,0 L 6.586,0 C 8.1,0 9.346,0.245 10.317,0.74 C 11.293,1.187 12.037,1.766 12.561,2.466 C 13.096,3.159 13.466,3.887 13.67,4.65 C 13.844,5.373 13.934,6.03 13.934,6.62 C 13.934,7.524 13.82,8.294 13.595,8.94 C 13.357,9.569 13.045,10.104 12.667,10.535 C 12.3,10.967 11.926,11.317 11.54,11.586 C 11.176,11.853 10.868,12.05 10.608,12.175 C 11.045,12.502 11.473,12.996 11.895,13.648 C 12.333,14.309 12.558,15.256 12.575,16.494 C 12.575,16.922 12.521,17.483 12.402,18.179 C 12.259,18.878 11.954,19.577 11.504,20.269 C 11.045,20.972 10.364,21.57 9.451,22.056 C 8.522,22.531 7.275,22.776 5.707,22.797 L 0,22.797 L 0,0 z M 3.222,10.263 L 6.325,10.263 C 6.901,10.263 7.526,10.214 8.204,10.112 C 8.857,9.94 9.434,9.528 9.941,8.873 C 10.433,8.234 10.688,7.48 10.711,6.615 C 10.732,5.96 10.486,5.225 9.968,4.398 C 9.69,4.027 9.278,3.705 8.743,3.43 C 8.222,3.168 7.543,3.04 6.705,3.04 L 3.222,3.04 L 3.222,10.263 z M 3.222,19.754 L 5.652,19.754 C 5.847,19.754 6.142,19.746 6.537,19.725 C 6.931,19.684 7.343,19.56 7.777,19.352 C 8.211,19.17 8.59,18.86 8.908,18.429 C 9.186,17.979 9.333,17.34 9.355,16.514 C 9.377,15.812 9.166,15.116 8.733,14.433 C 8.492,14.131 8.133,13.864 7.662,13.63 C 7.21,13.412 6.598,13.305 5.828,13.305 L 3.222,13.305 L 3.222,19.754" id="path12218" style="fill:#6D758D;fill-opacity:1;fill-rule:evenodd;stroke:none" /></g><g transform="translate(487.22301,707.51199)" id="g12220"><path d="M 0,0 L 0,3.04 L -8.693,3.04 L -8.693,9.992 L 0,9.992 L 0,13.032 L -8.693,13.032 L -8.693,19.754 L 0,19.754 L 0,22.797 L -11.912,22.797 L -11.912,0 L 0,0" id="path12222" style="fill:#6D758D;fill-opacity:1;fill-rule:evenodd;stroke:none" /></g></g></g></g></g></svg>