<svg id="Calque_1" data-name="Calque 1" xmlns="http://www.w3.org/2000/svg" viewBox="0 0 270 160" width="270" height="160"><title>logo</title><g transform="matrix(0.75, 0, 0, 0.75, 25, 34)"><path d="M244.36,432.58a6.77,6.77,0,0,0-1.28-4.3,8.87,8.87,0,0,0-4-2.64,25.37,25.37,0,0,0-2.7-.8l-2.68-.62a7.84,7.84,0,0,1-3.14-1.26,2.64,2.64,0,0,1-1-2.13,2.61,2.61,0,0,1,.6-1.68,3.58,3.58,0,0,1,1.33-1,6.68,6.68,0,0,1,1.66-.55,9.92,9.92,0,0,1,1.73-.14,12.53,12.53,0,0,1,4.78,1,14.67,14.67,0,0,1,3.57,2.07v-5.25a21.1,21.1,0,0,0-3.94-1.2,24.06,24.06,0,0,0-4.83-.49,13.11,13.11,0,0,0-7.91,2.31,6.92,6.92,0,0,0-3.07,5.87,7.5,7.5,0,0,0,1.28,4.49,8.85,8.85,0,0,0,4.33,2.87,23.59,23.59,0,0,0,2.92.81c1.07,0.22,2.1.46,3.05,0.71a5.86,5.86,0,0,1,2.17,1.06,2.65,2.65,0,0,1,1,2.15,2.81,2.81,0,0,1-.64,1.9,4,4,0,0,1-1.41,1,6,6,0,0,1-1.74.47,13.52,13.52,0,0,1-1.65.13,14.23,14.23,0,0,1-5.07-1,16.15,16.15,0,0,1-4.44-2.6v5.54a27.35,27.35,0,0,0,4.06,1.38,22.81,22.81,0,0,0,5.48.59c3.55,0,6.41-.8,8.47-2.4a7.43,7.43,0,0,0,3-6.23" transform="translate(-157.4 -372.56)" style="fill:#6D758D" /><path d="M269.79,417.2c-2.28-2.46-5.48-3.71-9.49-3.71s-7.22,1.25-9.48,3.72-3.44,5.93-3.44,10.24,1.15,7.71,3.44,10.21,5.46,3.74,9.48,3.74,7.21-1.24,9.49-3.7,3.46-5.91,3.46-10.25-1.16-7.79-3.46-10.26m-3.13,14.65a9.94,9.94,0,0,1-1.48,3,5.83,5.83,0,0,1-2.22,1.83,6.21,6.21,0,0,1-2.64.59,6.43,6.43,0,0,1-2.59-.54,5.85,5.85,0,0,1-2.27-1.84,9.42,9.42,0,0,1-1.48-3,18.43,18.43,0,0,1,0-8.89,9.16,9.16,0,0,1,1.5-3.09,6.12,6.12,0,0,1,2.24-1.8,6.53,6.53,0,0,1,5.14,0,5.79,5.79,0,0,1,2.26,1.82,9.27,9.27,0,0,1,1.48,3.07,18.92,18.92,0,0,1,0,8.82" transform="translate(-157.4 -372.56)" style="fill:#6D758D" /><path d="M301.49,438.51a8.07,8.07,0,0,1-2.21-5.4v-0.06h0V414h-5.86V432.8h0V433a13.7,13.7,0,0,0,3.74,9.46c3.14,3.33,7.88,5,14.08,5.15v-5.86c-4.45-.09-7.73-1.17-9.75-3.24" transform="translate(-157.4 -372.56)" style="fill:#6D758D" /><path d="M285.42,438.52a7.79,7.79,0,0,1-2.21-5.43V414h-5.86V432.8h0V433a12.52,12.52,0,0,0,3.72,9.44c2.92,2.83,5.78,4.58,11.36,5.12v-5.84a9.68,9.68,0,0,1-7-3.2" transform="translate(-157.4 -372.56)" style="fill:#6D758D" /><polygon points="157.49 68.1 163.33 68.1 163.33 56.96 163.41 56.83 172.48 41.49 166.22 41.49 161.1 51.17 160.6 52.11 160.09 51.18 154.77 41.49 148.15 41.49 157.41 57.18 157.49 57.31 157.49 68.1" style="fill:#6D758D" /><path d="M345.32,413.79l-9,26.69H342l1.61-5.23,0.12-.4h9.84l0.12,0.4,1.6,5.23h5.89l-9-26.69h-6.82Zm6.27,17.13h-6.69l0.23-.75,3-9.5,0.55-1.76,0.55,1.76,3.2,10.24h-0.78Z" transform="translate(-157.4 -372.56)" style="fill:#6D758D" /><polygon points="226.9 63.8 212.77 63.8 213.45 62.89 226.15 45.72 226.15 41.23 206.65 41.23 206.65 45.34 219.43 45.34 218.74 46.26 205.97 63.52 205.97 67.92 226.9 67.92 226.9 63.8" style="fill:#6D758D" /><path d="M395.76,413.79l-9,26.69h5.69l1.61-5.23,0.11-.4H404l0.12,0.4,1.6,5.23h5.89l-9-26.69h-6.82ZM402,430.92h-6.68l0.23-.75,3-9.5,0.55-1.77,0.55,1.77,3,9.5,0.23,0.75H402Z" transform="translate(-157.4 -372.56)" style="fill:#6D758D" /><path d="M428.83,429l0.64-.31a9.58,9.58,0,0,0,3.61-3,8.14,8.14,0,0,0,1.32-4.85,6.61,6.61,0,0,0-.8-3.44,6.71,6.71,0,0,0-2.18-2.23,8,8,0,0,0-2.95-1.12,24.23,24.23,0,0,0-3.93-.28H414v26.68h5.83V430.28h3.32l0.17,0.23,7.55,10h7l-8.6-10.9-0.45-.56M428,423.83a3.9,3.9,0,0,1-1.13,1.46,4.25,4.25,0,0,1-2,.88,14.84,14.84,0,0,1-2.52.18h-2.53v-8.64h2.86c0.79,0,1.46,0,2,.08a5.12,5.12,0,0,1,1.6.41,3.18,3.18,0,0,1,1.59,1.42,4.47,4.47,0,0,1,.46,2.07,5.34,5.34,0,0,1-.37,2.14" transform="translate(-157.4 -372.56)" style="fill:#6D758D" /><path d="M233.55,372.56H212.92c-25.27,24.19-27,46.71-20.3,64.83-27.12-11.58-17-48.57-17-48.57H158.11c-5.77,44.23,25.14,49.38,35,49.84,5.09,12.87,14.35,23.43,22.17,30.68h5c-34.33-48.9,1.23-86.25,13.25-96.77" transform="translate(-157.4 -372.56)" style="fill:#6D758D" /><polygon points="72.08 84.44 73.91 84.44 73.91 94.94 78.25 94.94 78.25 96.77 72.08 96.77 72.08 84.44" style="fill:#6D758D" /><polygon points="79.26 81.35 81.09 81.35 80.71 85.38 79.26 85.38 79.26 81.35" style="fill:#6D758D" /><path d="M241.79,460.34a3.53,3.53,0,0,1,7.05,0v9H247v-5.24h-3.39v5.24h-1.83v-9Zm5.22,1.92v-1.92a1.7,1.7,0,0,0-3.39,0v1.92H247Z" transform="translate(-157.4 -372.56)" style="fill:#6D758D" /><path d="M254.41,465.81V466a1.68,1.68,0,0,0,1.7,1.7,1.79,1.79,0,0,0,0-3.57c-1.59-.29-3.52-1.08-3.52-3.61a3.53,3.53,0,1,1,7.05-.15v0.18H257.8v-0.18a1.7,1.7,0,1,0-3.39.15,1.71,1.71,0,0,0,1.7,1.72c1.59,0.29,3.53,1.08,3.53,3.61a3.53,3.53,0,1,1-7.05.16v-0.18h1.83Z" transform="translate(-157.4 -372.56)" style="fill:#6D758D" /><path d="M265,465.81V466a1.68,1.68,0,0,0,1.7,1.7,1.71,1.71,0,0,0,1.7-1.85,1.73,1.73,0,0,0-1.7-1.72c-1.59-.29-3.52-1.08-3.52-3.61a3.53,3.53,0,1,1,7-.15v0.18h-1.83v-0.18a1.7,1.7,0,1,0-3.39.15,1.71,1.71,0,0,0,1.7,1.72c1.59,0.29,3.52,1.08,3.52,3.61a3.53,3.53,0,1,1-7,.16v-0.18H265Z" transform="translate(-157.4 -372.56)" style="fill:#6D758D" /><path d="M273.95,466v-9h1.83v9a1.7,1.7,0,0,0,3.39,0v-9H281v9a3.52,3.52,0,0,1-7,0" transform="translate(-157.4 -372.56)" style="fill:#6D758D" /><path d="M285,457h3.52a3.55,3.55,0,0,1,3.52,3.53,3.38,3.38,0,0,1-1.37,2.71,3.19,3.19,0,0,1,1.15,2.47v3.63H290v-3.63a1.62,1.62,0,0,0-1.63-1.61h-1.54v5.24H285V457Zm3.52,5.27a1.71,1.71,0,0,0,1.69-1.74,1.73,1.73,0,0,0-1.69-1.7h-1.7v3.44h1.7Z" transform="translate(-157.4 -372.56)" style="fill:#6D758D" /><path d="M295.75,460.34a3.52,3.52,0,1,1,7,0v9H301v-5.24h-3.39v5.24h-1.83v-9Zm5.22,1.92v-1.92a1.7,1.7,0,0,0-3.39,0v1.92H301Z" transform="translate(-157.4 -372.56)" style="fill:#6D758D" /><path d="M306.76,460.34a3.52,3.52,0,1,1,7,0v9H312v-9a1.7,1.7,0,1,0-3.39,0v9h-1.83v-9Z" transform="translate(-157.4 -372.56)" style="fill:#6D758D" /><path d="M324.82,466a3.52,3.52,0,0,1-7,0v-5.64a3.52,3.52,0,1,1,7,0v0.18H323v-0.18a1.7,1.7,0,1,0-3.39,0V466a1.7,1.7,0,0,0,3.39,0V465.8h1.83V466Z" transform="translate(-157.4 -372.56)" style="fill:#6D758D" /><polygon points="171.17 84.44 177.34 84.44 177.34 86.26 173 86.26 173 89.7 176.99 89.7 176.99 91.53 173 91.53 173 94.94 177.34 94.94 177.34 96.77 171.17 96.77 171.17 84.44" style="fill:#6D758D" /><g style="opacity:0.75"><path d="M343.76,457h3.53a3.54,3.54,0,0,1,3.53,3.53v5.29a3.54,3.54,0,0,1-3.53,3.52h-3.53V457Zm3.53,10.51a1.68,1.68,0,0,0,1.7-1.7v-5.29a1.68,1.68,0,0,0-1.7-1.7h-1.7v8.68h1.7Z" transform="translate(-157.4 -372.56)" style="fill:#6D758D" /><rect x="197.38" y="84.43" width="1.83" height="12.34" style="fill:#6D758D" /><polygon points="203.17 84.44 209.34 84.44 209.34 86.26 205 86.26 205 89.7 208.99 89.7 208.99 91.53 205 91.53 205 96.77 203.17 96.77 203.17 84.44" style="fill:#6D758D" /><polygon points="212.75 84.44 218.92 84.44 218.92 86.26 214.58 86.26 214.58 89.7 218.57 89.7 218.57 91.53 214.58 91.53 214.58 96.77 212.75 96.77 212.75 84.44" style="fill:#6D758D" /><path d="M379.73,457h6.17v1.83h-4.34v3.44h4v1.83h-4v3.41h4.34v1.83h-6.17V457Zm4.36-4.4h1.83l-2.2,3.3h-1.83Z" transform="translate(-157.4 -372.56)" style="fill:#6D758D" /><path d="M389.42,457h3.53a3.55,3.55,0,0,1,3.52,3.53,3.38,3.38,0,0,1-1.37,2.71,3.18,3.18,0,0,1,1.15,2.47v3.63h-1.83v-3.63a1.62,1.62,0,0,0-1.63-1.61h-1.54v5.24h-1.83V457Zm3.53,5.27a1.71,1.71,0,0,0,1.7-1.74,1.73,1.73,0,0,0-1.7-1.7h-1.7v3.44h1.7Z" transform="translate(-157.4 -372.56)" style="fill:#6D758D" /><polygon points="242.82 84.44 248.99 84.44 248.99 86.26 244.65 86.26 244.65 89.7 248.63 89.7 248.63 91.53 244.65 91.53 244.65 94.94 248.99 94.94 248.99 96.77 242.82 96.77 242.82 84.44" style="fill:#6D758D" /><path d="M409.9,460.34a3.53,3.53,0,0,1,7.05,0v9h-1.83v-9a1.7,1.7,0,0,0-3.39,0v9H409.9v-9Z" transform="translate(-157.4 -372.56)" style="fill:#6D758D" /><path d="M428,466a3.52,3.52,0,0,1-7,0v-5.64a3.52,3.52,0,1,1,7,0v0.18h-1.83v-0.18a1.7,1.7,0,1,0-3.39,0V466a1.7,1.7,0,0,0,3.39,0V465.8H428V466Z" transform="translate(-157.4 -372.56)" style="fill:#6D758D" /><polygon points="274.31 84.44 280.48 84.44 280.48 86.26 276.14 86.26 276.14 89.7 280.13 89.7 280.13 91.53 276.14 91.53 276.14 94.94 280.48 94.94 280.48 96.77 274.31 96.77 274.31 84.44" style="fill:#6D758D" /></g></g></svg>