<?xml version="1.0" encoding="UTF-8"?><svg width="270" height="160" viewBox="0 0 270 160" version="1.1" xmlns="http://www.w3.org/2000/svg" xmlns:xlink="http://www.w3.org/1999/xlink"><defs><polygon id="path-1" points="0 0.0976787109 59.3249795 0.0976787109 59.3249795 45.5626787 0 45.5626787"></polygon><polygon id="path-3" points="0.0220869141 0 51.5246484 0 51.5246484 46.7577715 0.0220869141 46.7577715"></polygon></defs><g id="Page-1" stroke="none" stroke-width="1" fill="none" fill-rule="evenodd" transform="matrix(1.4,0,0,1.4,50,50)"><g id="Universe_New" transform="translate(-1217.000000, -7832.000000)"><g id="Bottom" transform="translate(0.000000, 7552.000000)"><g id="PositiveLine" transform="translate(1155.000000, 257.000000)"><g id="Group-9" transform="translate(62.000000, 23.000000)"><g id="Group-3" transform="translate(0.000000, 0.512695)"><mask id="mask-2" fill="white"><use xlink:href="#path-1"></use></mask><g id="Clip-2"></g><path d="M45.5174795,45.5100762 C40.7399795,45.5100762 39.0074795,38.6850762 38.5349795,36.0075762 L38.3774795,34.8525762 C42.2099795,34.1700762 46.0949795,33.7500762 50.2424795,33.3301787 L50.5049795,34.8525762 C53.8124795,43.7775762 59.3249795,45.2475762 59.3249795,45.3526787 L45.5174795,45.5100762 Z M44.5199795,0.0976787109 C44.5199795,0.0976787109 46.5149795,12.1725762 48.3524795,22.8300762 C44.3099795,23.4600762 40.5299795,24.4051787 37.1174795,25.5600762 L35.3324795,12.2775762 C35.3324795,12.2775762 33.5474795,13.1700762 32.0774795,15.6375762 C31.3949795,16.7926787 26.3024795,24.7726787 20.6849795,33.7500762 C15.5924795,37.2150762 12.8624795,40.1026787 12.8624795,40.1026787 L17.3774795,39.2101787 L13.3874795,45.5626787 L-2.05078125e-05,45.5626787 L22.0499795,11.7000762 C22.0499795,11.7000762 29.3474795,0.255178711 41.0024795,0.255178711 L44.5199795,0.0976787109 Z" id="Fill-1" fill="#6D758D" mask="url(#mask-2)"></path></g><g id="Group-6" transform="translate(53.422852, 0.000000)"><mask id="mask-4" fill="white"><use xlink:href="#path-3"></use></mask><g id="Clip-5"></g><path d="M25.0646895,46.7577715 C6.16468945,46.7577715 1.07218945,38.4627715 0.0220869141,31.637874 C4.06458691,31.165374 8.15968945,30.587874 12.4120869,29.8002715 C14.0920869,35.2077715 20.7071895,38.8302715 32.2046895,35.9427715 L35.0395869,25.1802715 C36.5621895,24.4977715 38.0846895,23.815374 39.6070869,23.0277715 C42.2321895,21.767874 45.0146895,19.9302715 47.7970869,18.3552715 L41.9171895,43.8177715 C36.2471895,45.6027715 31.5221895,46.7577715 25.0646895,46.7577715 M1.22968945,20.4552715 C6.26958691,6.85777148 24.5921895,-4.11462598 51.5246895,1.50277148 L49.3721895,10.9527715 C30.9446895,7.59277148 19.4471895,12.8952715 14.6170869,19.562874 C9.68208691,19.930374 5.32458691,20.0877715 1.22968945,20.4552715" id="Fill-4" fill="#6D758D" mask="url(#mask-4)"></path></g><path d="M48.3524692,23.2903433 C63.0000718,20.9803433 79.9049692,22.0303433 101.587469,15.6253433 C65.1524692,38.8303433 38.7974692,26.9128433 12.9149692,40.5627407 C12.9149692,40.5627407 25.9874692,26.6503433 48.3524692,23.2903433 Z" id="Fill-7" fill="#6D758D" opacity="0.55"></path></g></g></g></g></g></svg>