<?xml version="1.0" encoding="UTF-8" standalone="no"?><svg xmlns:dc="http://purl.org/dc/elements/1.1/" xmlns:cc="http://creativecommons.org/ns#" xmlns:rdf="http://www.w3.org/1999/02/22-rdf-syntax-ns#" xmlns:svg="http://www.w3.org/2000/svg" xmlns="http://www.w3.org/2000/svg" xmlns:xlink="http://www.w3.org/1999/xlink" version="1.1" id="svg833" xml:space="preserve" width="270" height="160" viewBox="0 0 270 160"><g transform="matrix(0.55,0,0,-0.55,-124,70)"><g id="g1170" transform="translate(-2.0978749e-4,-6.4940444e-5)"><path id="path1154" style="fill:#6D758D;fill-opacity:1;fill-rule:nonzero;stroke:none;stroke-width:1.33333" d="m 835.12695,1087.6562 c -6.75318,0 -11.90768,0.7522 -19.32422,2.0626 l 1.125,9.1015 c 5.44278,-0.8428 11.44507,-1.6914 17.35547,-1.6914 6.56831,0 10.13672,2.4422 10.13672,7.7871 v 0.5645 l -13.03906,0.75 c -13.60423,0.56 -20.08008,5.1606 -20.08008,13.9746 0,9.6621 6.10081,15.0117 17.26367,15.0117 5.7201,0 10.12971,-3e-4 25.89258,-2.3438 v -28.2343 c 0,-11.6359 -6.19345,-16.9824 -19.33008,-16.9825 z m 9.29297,25.8926 v 11.9141 c -6.10069,0.8428 -10.5118,1.0273 -13.23047,1.0273 -6.28557,0 -9.66211,-2.1577 -9.66211,-6.0019 0,-3.8442 3.00239,-5.8128 9.09766,-6.1934 z" transform="matrix(0.75000002,0,0,-0.75000002,0,751.18104)" /><path id="path1148" style="fill:#6D758D;fill-opacity:1;fill-rule:nonzero;stroke:none;stroke-width:1.33333" d="m 693.19531,1087.6562 c -6.75862,0 -11.91898,0.7522 -19.33008,2.0626 l 1.12696,9.1015 c 5.44277,-0.8428 11.44507,-1.6914 17.35547,-1.6914 6.5683,0 10.1289,2.4422 10.1289,7.7871 v 0.5645 l -13.03906,0.75 c -13.59879,0.56 -20.07422,5.1606 -20.07422,13.9746 0,9.6621 6.10081,15.0117 17.26367,15.0117 5.7201,0 10.12971,-3e-4 25.89258,-2.3438 v -28.2343 c 0,-11.6359 -6.19303,-16.9824 -19.32422,-16.9825 z m 9.28125,25.8926 v 11.9141 c -6.09526,0.8428 -10.50397,1.0273 -13.22265,1.0273 -6.28556,0 -9.66211,-2.1577 -9.66211,-6.0019 0,-3.8442 3.00043,-5.8128 9.0957,-6.1934 z" transform="matrix(0.75000002,0,0,-0.75000002,0,751.18104)" /><path id="path1144" style="fill:#6D758D;fill-opacity:1;fill-rule:nonzero;stroke:none;stroke-width:1.33333" d="m 638.0332,1088.0332 c -9.38485,0 -18.76361,1.2175 -24.29882,2.1582 v 65.291 h 10.7871 v -21.9512 c 6.00827,0.7504 9.66305,0.752 14.35547,0.752 12.85388,0 21.48243,-9.4786 21.48243,-22.8926 -0.27731,-14.0718 -8.06947,-23.3574 -22.32618,-23.3574 z m -1.5,9.0957 c 9.56428,0 13.22852,6.1927 13.22852,14.5391 0,7.6014 -4.88319,13.5117 -12.38672,13.5117 -3.56689,0 -6.75282,0.094 -12.85352,-0.9395 v -26.3613 c 3.65934,-0.4676 7.41172,-0.75 12.01172,-0.75 z" transform="matrix(0.75000002,0,0,-0.75000002,0,751.18104)" /><path id="path1138" style="fill:#6D758D;fill-opacity:1;fill-rule:nonzero;stroke:none;stroke-width:1.33333" d="m 518.60742,1087.4668 c -14.8222,0 -24.85937,9.5695 -24.85937,23.8262 0,14.5449 10.03717,24.207 24.85937,24.207 14.72977,0 24.76758,-9.6621 24.76758,-24.207 0,-14.2567 -10.03781,-23.8262 -24.76758,-23.8262 z m 0,9.8516 c 8.2539,0 13.78906,5.5358 13.78906,13.9746 0,8.6345 -5.53516,14.3554 -13.78906,14.3554 -8.34632,0 -13.97851,-5.7209 -13.97851,-14.3554 0,-8.4388 5.63219,-13.9746 13.97851,-13.9746 z" transform="matrix(0.75000002,0,0,-0.75000002,0,751.18104)" /><path style="fill:#6D758D;fill-opacity:1;fill-rule:nonzero;stroke:none;stroke-width:1" d="m 586.24182,-64.843151 c -4.85283,0 -10.69254,-0.913473 -14.14253,-2.177656 -2.38972,1.545565 -5.55833,2.177656 -9.28563,2.177656 -6.4718,0 -14.77462,-1.121452 -17.38047,-1.757621 v -32.575127 h 8.09077 v 26.454037 c 2.60585,0.350709 5.06897,0.493439 7.528,0.493439 5.20762,0 7.74006,-2.324464 7.74006,-7.740059 v -19.207417 h 8.16417 v 21.458477 c 0,1.688296 -0.21205,3.164535 -0.56276,4.432795 2.67109,0.774822 5.41559,1.056204 8.09077,1.056204 5.20761,0 7.74006,-2.605847 7.74006,-7.882789 v -19.064687 h 8.09076 v 21.389151 c 0,9.285624 -5.62765,12.943597 -14.0732,12.943597" id="path1152" /><path style="fill:#6D758D;fill-opacity:1;fill-rule:nonzero;stroke:none;stroke-width:1" d="m 449.0454,-65.895277 h -8.16009 v -26.739497 c -3.16862,-0.420035 -6.33723,-0.632092 -9.22038,-0.632092 -5.06489,0 -7.59733,2.605847 -7.59733,7.878712 v 19.492877 h -8.16417 v -21.393229 c 0,-9.285624 5.70105,-12.943594 14.00388,-12.943594 6.4718,0 15.48012,0.982797 19.13809,1.757618 z" id="path1142" /><path style="fill:#6D758D;fill-opacity:1;fill-rule:nonzero;stroke:none;stroke-width:1" d="m 365.94783,-64.843151 c -6.32907,0 -14.70122,-0.9828 -20.4716,-2.039004 v -32.293744 h 8.09077 v 25.891272 c 4.08209,0.350709 8.09077,0.493439 12.38083,0.493439 z" id="path1136" /><path style="fill:#6D758D;fill-opacity:1;fill-rule:nonzero;stroke:none;stroke-width:1" d="m 334.64097,-71.665658 h -25.25919 v -7.809385 h 17.23774 v -10.415232 c -4.43279,-1.268261 -9.84839,-2.10833 -14.0732,-2.10833 -9.99112,0 -16.67498,6.753181 -16.67498,16.956357 0,9.917715 7.38935,16.605648 18.506,16.605648 2.81383,0 7.59733,-0.636169 14.14254,-1.831026 l 1.68829,7.878712 c -5.83971,1.480316 -11.82214,2.112408 -16.46292,2.112408 -16.04288,0 -26.73542,-9.921794 -26.73542,-24.765742 0,-15.12941 10.1991,-25.189852 25.53649,-25.189852 6.96931,0 14.42391,1.900349 22.09465,5.207613 z" id="path937" /></g><g id="g1205" transform="translate(-2.0978749e-4,-6.4940444e-5)"><path id="path1188" style="fill:#6D758D;fill-opacity:1;fill-rule:nonzero;stroke:none;stroke-width:1.33333" d="m 752.5625,1051.7695 c -2.64255,0 -5.25693,0.1417 -7.13281,0.2559 v 19.3418 h 4.08789 v -5.6875 h 3.04492 c 4.83923,0 8.16797,-2.7897 8.16797,-7.0254 0,-4.2683 -3.32874,-6.8848 -8.16797,-6.8848 z m 0.37109,3.752 c 2.16407,0 3.78907,1.1103 3.78907,3.1601 0,2.0499 -1.625,3.3262 -3.78907,3.3262 h -3.41601 v -6.4258 c 1.08204,-0.06 2.25243,-0.061 3.41601,-0.061 z" transform="matrix(0.75000002,0,0,-0.75000002,0,751.18104)" /><path id="path1182" style="fill:#6D758D;fill-opacity:1;fill-rule:nonzero;stroke:none;stroke-width:1.33333" d="m 665.17969,1051.6016 c -6.0572,0 -10.35352,4.0346 -10.35352,10.0918 0,6.0626 4.29632,10.0976 10.35352,10.0976 6.06264,0 10.35351,-4.035 10.35351,-10.0976 0,-6.0572 -4.29087,-10.0918 -10.35351,-10.0918 z m 0,3.8652 c 3.50165,0 6.0625,2.4748 6.0625,6.2266 0,3.7572 -2.56085,6.2636 -6.0625,6.2636 -3.49622,0 -6.05664,-2.5064 -6.05664,-6.2636 0,-3.7518 2.56042,-6.2266 6.05664,-6.2266 z" transform="matrix(0.75000002,0,0,-0.75000002,0,751.18104)" /><path id="path1178" style="fill:#6D758D;fill-opacity:1;fill-rule:nonzero;stroke:none;stroke-width:1.33333" d="m 621.63281,1051.8574 c -2.56098,0 -5.94308,0.1136 -7.44922,0.168 v 19.3418 h 4.08789 v -5.916 h 2.2793 1.31055 l 3.97851,5.916 h 4.94922 l -4.88867,-6.9121 c 2.24563,-1.1962 3.63672,-3.2677 3.63672,-5.8613 0,-4.3825 -3.15206,-6.7364 -7.9043,-6.7364 z m 0.0527,3.6641 c 2.30542,0 3.81836,0.9408 3.81836,3.0723 0,1.9356 -1.51205,3.2734 -3.5293,3.2734 h -3.70313 v -6.3184 c 1.16903,-0.027 2.36465,-0.027 3.41407,-0.027 z" transform="matrix(0.75000002,0,0,-0.75000002,0,751.18104)" /><path style="fill:#6D758D;fill-opacity:1;fill-rule:nonzero;stroke:none;stroke-width:1" d="m 592.47505,-43.706428 v 3.074818 h 7.66258 v 2.793436 h -10.72924 v -14.505475 h 10.72924 v 2.793436 h -7.66258 v 3.074818 h 6.74503 v 2.768967 z" id="path1192" /><path style="fill:#6D758D;fill-opacity:1;fill-rule:nonzero;stroke:none;stroke-width:1" d="m 539.2285,-37.838174 h -3.09113 v -8.12747 c 0,-2.410103 -1.43138,-3.821094 -3.56417,-3.821094 -2.15727,0 -3.56418,1.410991 -3.56418,3.821094 v 8.12747 h -3.07074 v -8.12747 c 0,-4.184036 2.62216,-6.696089 6.63492,-6.696089 4.01276,0 6.6553,2.512053 6.6553,6.696089 z" id="path1186" /><path style="fill:#6D758D;fill-opacity:1;fill-rule:nonzero;stroke:none;stroke-width:1" d="m 440.79355,-43.832846 h -7.76453 v -2.748577 h 4.93031 v -2.565067 c -1.19485,-0.297695 -2.69148,-0.554609 -3.88634,-0.554609 -2.73226,0 -4.56737,1.879961 -4.56737,4.673397 0,2.732265 2.07163,4.567368 5.16684,4.567368 0.81152,0 2.17358,-0.191666 4.24521,-0.534219 l 0.575,2.838294 c -1.79025,0.444503 -3.60496,0.636169 -5.07712,0.636169 -4.88546,0 -8.12747,-3.005492 -8.12747,-7.507612 0,-4.587759 3.09113,-7.634031 7.76452,-7.634031 2.07163,0 4.31046,0.574999 6.74095,1.574111 z" id="path1176" /><path style="fill:#6D758D;fill-opacity:1;fill-rule:nonzero;stroke:none;stroke-width:1" d="m 378.26138,-43.706428 v 3.074818 h 7.66257 v 2.793436 h -10.72924 v -14.505475 h 10.72924 v 2.793436 h -7.66257 v 3.074818 h 6.74094 v 2.768967 z" id="path1174" /><path style="fill:#6D758D;fill-opacity:1;fill-rule:nonzero;stroke:none;stroke-width:1" d="m 355.92613,-52.343649 v 2.748578 h -7.3812 v 11.756897 h -3.07074 v -14.505475 z" id="path939" /></g><path d="m 480.32475,72.777381 -3.66613,-58.026025 c 4.01276,-0.08972 8.07038,-0.391489 12.0179,-0.954255 v 0 l 27.29004,59.290209 c -5.65211,0.566844 -11.53669,0.872694 -17.68633,0.872694 v 0 c -6.064,0 -12.05052,-0.428191 -17.95548,-1.182623 M 424.17868,54.764804 449.00561,12.292315 c 3.87004,0.750354 7.76454,1.345743 11.62641,1.7617 v 0 l -8.97161,52.231171 C 442.1097,63.185898 432.90971,59.279163 424.17868,54.764804 M 506.25682,8.8300829 c 4.07394,-1.9696795 7.56063,-4.5143587 10.14609,-7.7359878 v 0 l 67.82957,41.4244399 c -8.81258,10.003363 -20.80194,17.988109 -35.67037,23.407787 v 0 z M 376.46595,20.954011 415.63526,1.5916126 c 4.72641,2.2062042 9.81984,4.2044297 15.12126,5.9498187 v 0 L 400.95033,40.711977 C 392.01948,34.497087 383.8023,27.80507 376.46595,20.954011 m 144.70824,-32.179589 c 0.12642,-1.696452 0.10603,-3.486699 -0.0979,-5.387053 v 0 h 80.25526 c 1.37429,11.973042 0.39965,23.1916516 -2.72411,33.398915 v 0 z m -175.69705,-5.387053 h 44.67054 c 2.42641,3.144147 5.75815,6.218968 9.77091,9.138824 v 0 L 361.65462,5.6451559 C 354.9422,-2.0949099 349.4736,-9.6800111 345.47714,-16.612631" id="path1217" style="fill-opacity:1;fill:#6D758D" /></g></svg>