<svg xmlns="http://www.w3.org/2000/svg" xmlns:xlink="http://www.w3.org/1999/xlink" viewBox="0 0 140 58" shape-rendering="geometricPrecision" text-rendering="geometricPrecision" xml:space="preserve"><g transform="matrix(0.55,0,0,0.55,0,0)"><g><g fill="#00C3F2" transform="matrix(0.333858, 0, 0, 0.333858, 23, 40)"><path d="M0 -37.65Q-15.6 -37.65 -26.65 -26.65Q-37.65 -15.55 -37.65 0Q-37.65 15.55 -26.65 26.55Q-15.6 37.65 0 37.65Q15.55 37.65 26.55 26.65L26.6 26.55Q37.6 15.55 37.6 0Q37.6 -15.55 26.55 -26.65Q15.55 -37.65 0 -37.65M48.3 -48.4Q68.35 -28.35 68.35 0Q68.35 28.3 48.3 48.35Q28.25 68.4 0 68.4Q-28.35 68.4 -48.4 48.35Q-68.4 28.35 -68.4 0Q-68.4 -28.3 -48.4 -48.35L-48.35 -48.4Q-28.3 -68.4 0 -68.4Q28.35 -68.4 48.3 -48.4" /><path transform="translate(72,78)" d="M-68.4 0Q-68.4 -28.3 -48.4 -48.35L-48.35 -48.4Q-28.3 -68.4 0 -68.4L0 -37.65Q-15.6 -37.65 -26.65 -26.65Q-37.65 -15.55 -37.65 0L-37.65 0.2L-37.65 68.85L-68.5 68.75L-68.4 0.2L-68.4 0" /><path transform="translate(70,78)" d="M26.55 26.65L26.6 26.55Q37.6 15.55 37.6 0Q37.6 -15.55 26.55 -26.65Q15.55 -37.65 0 -37.65L0 -68.4Q28.35 -68.4 48.3 -48.4Q68.35 -28.35 68.35 0Q68.35 28.3 48.3 48.35Q28.25 68.4 0 68.4L-8.9 68.45L-8.95 37.4L0 37.65Q15.55 37.65 26.55 26.65" /></g><g transform="matrix(0.152187, -0.16764, 0.16764, 0.152187, 58, 25)"><path fill="#FCC800" d="M9.3 -33.55L47.9 6Q51.55 9.6 51.55 14.85Q51.45 19.8 47.85 23.6L37.4 33.8Q33.8 37.4 28.4 37.4Q23.45 37.25 19.8 33.65L8.7 22.2Q5 18.6 0.1 18.45Q-5.3 18.6 -8.95 22.05L-20.2 32.95Q-23.95 36.55 -29.2 36.7Q-34.15 36.55 -37.95 32.85L-48.15 22.4Q-51.7 18.75 -51.55 13.45Q-51.55 8.25 -47.75 4.85L-8.25 -33.8Q-4.65 -37.35 0.65 -37.35Q5.7 -37.2 9.3 -33.55" /></g></g><g><g fill="#FBF7F8" transform="matrix(0.9375, 0, 0, 0.9375, 92, 64)"><path d="M38.8 -17.3Q38.8 -9.9 33.5 -4.65Q28.2 0.6 20.9 0.6Q13.55 0.6 8.25 -4.65Q2.95 -9.9 2.95 -17.2Q2.95 -24.65 8.15 -29.75Q13.3 -34.85 20.9 -34.85Q28.05 -34.85 33.4 -29.65Q38.8 -24.4 38.8 -17.3M32.3 -17.3Q32.3 -21.8 28.95 -25Q25.6 -28.25 20.9 -28.25Q16.15 -28.25 12.8 -25.1Q9.45 -21.9 9.45 -17.3Q9.45 -12.65 12.8 -9.3Q16.15 -6 20.9 -6Q25.6 -6 28.95 -9.3Q32.3 -12.65 32.3 -17.3" /><path transform="translate(41.8,0)" d="M36.25 0L28.65 0L21.1 -12.85L10.5 -12.85L10.5 0L4 0L4 -34.3L24.9 -34.3Q29.45 -34.3 32.6 -31.15Q35.75 -28 35.75 -23.6Q35.75 -20.15 33.75 -17.4Q31.75 -14.65 28.4 -13.45L36.25 0M29.2 -23.6Q29.2 -25.3 27.95 -26.55Q26.7 -27.8 24.9 -27.8L10.5 -27.8L10.5 -19.35L24.9 -19.35Q26.7 -19.35 27.95 -20.6Q29.2 -21.85 29.2 -23.6" /><path transform="translate(81.8,0)" d="M36.9 -16.2Q36.9 -10.8 34.8 -7.25Q32.75 -3.7 28.95 -1.55Q25.15 0.6 20.9 0.6Q16.65 0.6 12.85 -1.55Q9 -3.7 6.95 -7.3Q4.8 -11.15 4.8 -16.2L4.8 -34.3L11.3 -34.3L11.3 -16.2Q11.3 -13.05 12.6 -10.7Q13.85 -8.55 16.1 -7.25Q18.35 -6 20.9 -6Q23.4 -6 25.65 -7.25Q27.9 -8.55 29.1 -10.7Q30.45 -13.05 30.45 -16.2L30.45 -34.3L36.9 -34.3L36.9 -16.2" /><path transform="translate(123.6,0)" d="M24.9 -12.85L10.5 -12.85L10.5 0L4 0L4 -34.3L24.9 -34.3Q29.45 -34.3 32.6 -31.15Q35.75 -28 35.75 -23.6Q35.75 -19.3 32.6 -16.05Q29.45 -12.85 24.9 -12.85M29.2 -23.6Q29.2 -25.3 27.95 -26.55Q26.7 -27.8 24.9 -27.8L10.5 -27.8L10.5 -19.35L24.9 -19.35Q26.7 -19.35 27.95 -20.6Q29.2 -21.85 29.2 -23.6" /></g><g fill="#FBF7F8" transform="matrix(0.15625, 0, 0, 0.15625, 99, 78)"><path d="M33.3 0L26.95 0L23.2 -10.7L11.3 -10.7L7.55 0L1.15 0L14.2 -38.1L20.25 -38.1L33.3 0M21.05 -16.85L17.3 -27.5L13.4 -16.85L21.05 -16.85" /><path transform="translate(46.5,0)" d="M19.95 -29.45Q18.15 -32.8 14.3 -32.85Q12.1 -32.85 10.65 -31.5Q9.15 -30.15 9.2 -28.25Q9.2 -26.9 10.55 -25.8Q11.9 -24.75 14.8 -24.3Q21.65 -23.1 24.75 -19.65Q27.85 -16.2 27.85 -11.75Q27.85 -6.85 24.15 -3.1Q20.45 0.65 14.95 0.65Q6.2 0.55 1.9 -8.2L7.65 -11.1Q10.35 -5.55 15.05 -5.55Q17.8 -5.5 19.8 -7.45Q21.8 -9.45 21.8 -12.05Q21.85 -13.8 20.25 -15.55Q18.65 -17.3 14.6 -18Q9.15 -18.8 6.25 -21.35Q3.35 -23.9 3.35 -27.4Q3.25 -31.6 6.3 -35.15Q9.35 -38.75 14.45 -38.75Q21.55 -38.55 25 -32L19.95 -29.45" /><path transform="translate(90,0)" d="M19.95 -29.45Q18.15 -32.8 14.3 -32.85Q12.1 -32.85 10.65 -31.5Q9.15 -30.15 9.2 -28.25Q9.2 -26.9 10.55 -25.8Q11.9 -24.75 14.8 -24.3Q21.65 -23.1 24.75 -19.65Q27.85 -16.2 27.85 -11.75Q27.85 -6.85 24.15 -3.1Q20.45 0.65 14.95 0.65Q6.2 0.55 1.9 -8.2L7.65 -11.1Q10.35 -5.55 15.05 -5.55Q17.8 -5.5 19.8 -7.45Q21.8 -9.45 21.8 -12.05Q21.85 -13.8 20.25 -15.55Q18.65 -17.3 14.6 -18Q9.15 -18.8 6.25 -21.35Q3.35 -23.9 3.35 -27.4Q3.25 -31.6 6.3 -35.15Q9.35 -38.75 14.45 -38.75Q21.55 -38.55 25 -32L19.95 -29.45" /><path transform="translate(132,0)" d="M28.75 -13.65Q28.75 -9.15 27 -5.75Q25.6 -2.9 22.45 -1.1Q19.35 0.65 15.8 0.65Q12.3 0.65 9.15 -1.1Q6 -2.9 4.55 -5.75Q2.85 -9.15 2.85 -13.65L2.85 -38.1L8.85 -38.1L8.85 -13.65Q8.85 -9.95 10.75 -7.7Q12.65 -5.45 15.8 -5.45Q18.95 -5.45 20.85 -7.7Q22.75 -9.95 22.75 -13.65L22.75 -38.1L28.75 -38.1L28.75 -13.65" /><path transform="translate(176.4,0)" d="M28.75 0L22.25 0L16.1 -16.55L8.85 -16.55L8.85 0L2.85 0L2.85 -38.1L17.9 -38.1Q22.55 -38.05 25.25 -34.7Q28 -31.4 28 -27.4Q28 -24.4 26.35 -21.7Q24.7 -19 22.05 -17.8L28.75 0M22 -27.25Q22 -29.45 20.65 -30.65Q19.35 -31.85 17.7 -31.9L8.85 -31.9L8.85 -22.5L17.9 -22.5Q19.6 -22.5 20.8 -23.75Q22 -25 22 -27.25" /><path transform="translate(220.4,0)" d="M33.3 0L26.95 0L23.2 -10.7L11.3 -10.7L7.55 0L1.15 0L14.2 -38.1L20.25 -38.1L33.3 0M21.05 -16.85L17.3 -27.5L13.4 -16.85L21.05 -16.85" /><path transform="translate(267.4,0)" d="M28.75 0L23.45 0L8.85 -25.8L8.85 0L2.85 0L2.85 -38.1L8.85 -38.1L22.75 -13.75L22.75 -38.1L28.75 -38.1L28.75 0" /><path transform="translate(311.6,0)" d="M16.9 -5.4Q21.1 -5.45 22.95 -9.35L28.6 -6.6Q25.15 0.45 16.9 0.6Q10.15 0.6 6.55 -4.55Q2.95 -9.7 2.95 -19.05Q2.95 -28.35 6.55 -33.55Q10.15 -38.75 16.9 -38.75Q25.15 -38.55 28.6 -31.5L22.95 -28.7Q21.1 -32.65 16.9 -32.7Q12.9 -32.7 11.1 -28.9Q9.25 -25.15 9.25 -19.05Q9.25 -12.95 11.1 -9.15Q12.9 -5.4 16.9 -5.4" /><path transform="translate(356,0)" d="M26.5 0L2.85 0L2.85 -38.1L25.3 -38.1L25.3 -32.05L8.85 -32.05L8.85 -22.7L19.95 -22.7L19.95 -16.55L8.85 -16.55L8.85 -6.15L26.5 -6.15L26.5 0" /><path transform="translate(398,0)" d="M19.95 -29.45Q18.15 -32.8 14.3 -32.85Q12.1 -32.85 10.65 -31.5Q9.15 -30.15 9.2 -28.25Q9.2 -26.9 10.55 -25.8Q11.9 -24.75 14.8 -24.3Q21.65 -23.1 24.75 -19.65Q27.85 -16.2 27.85 -11.75Q27.85 -6.85 24.15 -3.1Q20.45 0.65 14.95 0.65Q6.2 0.55 1.9 -8.2L7.65 -11.1Q10.35 -5.55 15.05 -5.55Q17.8 -5.5 19.8 -7.45Q21.8 -9.45 21.8 -12.05Q21.85 -13.8 20.25 -15.55Q18.65 -17.3 14.6 -18Q9.15 -18.8 6.25 -21.35Q3.35 -23.9 3.35 -27.4Q3.25 -31.6 6.3 -35.15Q9.35 -38.75 14.45 -38.75Q21.55 -38.55 25 -32L19.95 -29.45" /><path transform="translate(467.5,0)" d="M26.5 0L2.85 0L2.85 -38.1L25.3 -38.1L25.3 -32.05L8.85 -32.05L8.85 -22.7L19.95 -22.7L19.95 -16.55L8.85 -16.55L8.85 -6.15L26.5 -6.15L26.5 0" /><path transform="translate(510,0)" d="M26.4 -32.75L17.55 -32.75L17.55 0L11.55 0L11.55 -32.75L2.85 -32.75L2.85 -38.1L26.4 -38.1L26.4 -32.75" /><path transform="translate(578.5,0)" d="M19.95 -29.45Q18.15 -32.8 14.3 -32.85Q12.1 -32.85 10.65 -31.5Q9.15 -30.15 9.2 -28.25Q9.2 -26.9 10.55 -25.8Q11.9 -24.75 14.8 -24.3Q21.65 -23.1 24.75 -19.65Q27.85 -16.2 27.85 -11.75Q27.85 -6.85 24.15 -3.1Q20.45 0.65 14.95 0.65Q6.2 0.55 1.9 -8.2L7.65 -11.1Q10.35 -5.55 15.05 -5.55Q17.8 -5.5 19.8 -7.45Q21.8 -9.45 21.8 -12.05Q21.85 -13.8 20.25 -15.55Q18.65 -17.3 14.6 -18Q9.15 -18.8 6.25 -21.35Q3.35 -23.9 3.35 -27.4Q3.25 -31.6 6.3 -35.15Q9.35 -38.75 14.45 -38.75Q21.55 -38.55 25 -32L19.95 -29.45" /><path transform="translate(620.8,0)" d="M26.5 0L2.85 0L2.85 -38.1L25.3 -38.1L25.3 -32.05L8.85 -32.05L8.85 -22.7L19.95 -22.7L19.95 -16.55L8.85 -16.55L8.85 -6.15L26.5 -6.15L26.5 0" /><path transform="translate(662.8,0)" d="M28.75 0L22.25 0L16.1 -16.55L8.85 -16.55L8.85 0L2.85 0L2.85 -38.1L17.9 -38.1Q22.55 -38.05 25.25 -34.7Q28 -31.4 28 -27.4Q28 -24.4 26.35 -21.7Q24.7 -19 22.05 -17.8L28.75 0M22 -27.25Q22 -29.45 20.65 -30.65Q19.35 -31.85 17.7 -31.9L8.85 -31.9L8.85 -22.5L17.9 -22.5Q19.6 -22.5 20.8 -23.75Q22 -25 22 -27.25" /><path transform="translate(707,0)" d="M30.2 -38.1L18.4 0L12.9 0L1.3 -38.1L7.6 -38.1L15.75 -12.65L23.75 -38.1L30.2 -38.1" /><path transform="translate(751,0)" d="M10.85 0L4.7 0L4.7 -38.1L10.85 -38.1L10.85 0" /><path transform="translate(779.5,0)" d="M16.9 -5.4Q21.1 -5.45 22.95 -9.35L28.6 -6.6Q25.15 0.45 16.9 0.6Q10.15 0.6 6.55 -4.55Q2.95 -9.7 2.95 -19.05Q2.95 -28.35 6.55 -33.55Q10.15 -38.75 16.9 -38.75Q25.15 -38.55 28.6 -31.5L22.95 -28.7Q21.1 -32.65 16.9 -32.7Q12.9 -32.7 11.1 -28.9Q9.25 -25.15 9.25 -19.05Q9.25 -12.95 11.1 -9.15Q12.9 -5.4 16.9 -5.4" /><path transform="translate(824,0)" d="M26.5 0L2.85 0L2.85 -38.1L25.3 -38.1L25.3 -32.05L8.85 -32.05L8.85 -22.7L19.95 -22.7L19.95 -16.55L8.85 -16.55L8.85 -6.15L26.5 -6.15L26.5 0" /><path transform="translate(865.5,0)" d="M19.95 -29.45Q18.15 -32.8 14.3 -32.85Q12.1 -32.85 10.65 -31.5Q9.15 -30.15 9.2 -28.25Q9.2 -26.9 10.55 -25.8Q11.9 -24.75 14.8 -24.3Q21.65 -23.1 24.75 -19.65Q27.85 -16.2 27.85 -11.75Q27.85 -6.85 24.15 -3.1Q20.45 0.65 14.95 0.65Q6.2 0.55 1.9 -8.2L7.65 -11.1Q10.35 -5.55 15.05 -5.55Q17.8 -5.5 19.8 -7.45Q21.8 -9.45 21.8 -12.05Q21.85 -13.8 20.25 -15.55Q18.65 -17.3 14.6 -18Q9.15 -18.8 6.25 -21.35Q3.35 -23.9 3.35 -27.4Q3.25 -31.6 6.3 -35.15Q9.35 -38.75 14.45 -38.75Q21.55 -38.55 25 -32L19.95 -29.45" /></g></g></g></svg>